<mxfile host="app.diagrams.net" modified="2023-09-06T06:44:33.108Z" agent="Mozilla/5.0 (Linux; Android 10; K) AppleWebKit/537.36 (KHTML, like Gecko) Chrome/116.0.0.0 Mobile Safari/537.36" version="21.7.2" etag="n9FWnn8FX6ntjyKfAhJm" type="github">
  <diagram name="Page-1" id="8hNXw9YN52HVcii9UKX3">
    <mxGraphModel>
      <root>
        <mxCell id="0" />
        <mxCell id="1" parent="0" />
      </root>
    </mxGraphModel>
  </diagram>
</mxfile>
